<svg xmlns="http://www.w3.org/2000/svg" width="999.993" height="210.4" viewBox="0 0 999.993 210.4">
  <g id="Group_4" data-name="Group 4" transform="translate(-324.407 -1102.1)">
    <g id="Group_5" data-name="Group 5">
      <g id="Group_6" data-name="Group 6">
        <g id="Group_7" data-name="Group 7">
          <g id="Group_8" data-name="Group 8">
            <g id="Group_9" data-name="Group 9">
              <g id="Group_10" data-name="Group 10">
                <g id="Group_11" data-name="Group 11">
                  <g id="Group_12" data-name="Group 12">
                    <path id="Object_13" data-name="Object 13" d="M470.7,1286.8l-15,25.7-.3-.5-24.9-43.1v-.1L398.3,1213a.088.088,0,0,1-.1-.1l-12.4-21.5a78.9,78.9,0,0,0,12.2-1.8,62.759,62.759,0,0,1-8.1-.7,59.54,59.54,0,0,1-6.2-1.1l-6-10.4-15-25.9H469l-13.2,25.9H407.7l10.1,17.7h.1l14.9,26,37.6,65.2Z" fill="#1368a6"/>
                  </g>
                  <g id="Group_15" data-name="Group 15">
                    <path id="Object_16" data-name="Object 16" d="M521.7,1188.9a62.737,62.737,0,0,1-8.1.7,78.9,78.9,0,0,0,12.2,1.8l-43.7,75.7-14.7-25.7,36.5-64H476.4l13.7-25.9h58.7l-20.9,36.3C526.1,1188.2,524.1,1188.6,521.7,1188.9Z" fill="#1368a6"/>
                  </g>
                  <g id="Group_18" data-name="Group 18">
                    <path id="Object_19" data-name="Object 19" d="M455.8,1221.1H410.4v-26H470Z" fill="#1368a6"/>
                  </g>
                </g>
                <path id="Object_22" data-name="Object 22" d="M429.3,1151.5v25.9H377.7l-15-25.9Z" fill="#1368a6"/>
              </g>
            </g>
          </g>
        </g>
      </g>
      <g id="Group_28" data-name="Group 28">
        <path id="Object_29" data-name="Object 29" d="M534.6,1185.8h-.2a42.806,42.806,0,0,1-6.5,2c-1.8.4-3.8.8-6.2,1.1-1.6-.5-2.3-2.1-2.9-3.9-2.9-8.9-2.2-18-1.4-27.1a19.146,19.146,0,0,1,.7-4.5,6.451,6.451,0,0,1,.6-1.4,71.937,71.937,0,0,0,11.8-.5c11-1.2,27.2-5,38-16.3,5-5.3,11.8-15.3,16-27.6a53.382,53.382,0,0,0,1.6-5.5c6.1,36.4-16.5,70.8-51.5,83.7Z" fill="#1368a6"/>
        <path id="Object_30" data-name="Object 30" d="M394.5,1177.4a49.123,49.123,0,0,1-1.7,7.6c-.6,1.8-1.3,3.4-2.9,3.9a59.54,59.54,0,0,1-6.2-1.1,42.806,42.806,0,0,1-6.5-2h-.3c-35-12.9-57.6-47.3-51.5-83.7.4,1.3.9,3.2,1.7,5.5,4.2,12.3,11,22.3,16,27.6,10.7,11.3,27,15.1,38,16.3a71.938,71.938,0,0,0,11.8.5,6.448,6.448,0,0,1,.6,1.4,19.148,19.148,0,0,1,.7,4.5c.5,6.5,1.1,13.1.3,19.5Z" fill="#1368a6"/>
      </g>
    </g>
    <g id="Group_33" data-name="Group 33">
      <path id="Object_34" data-name="Object 34" d="M708.2,1145.5v12.7H646.6v43.9h60.8v12.2H646.6v54.9H633.7V1145.5Z" fill="#1368a6"/>
      <path id="Object_35" data-name="Object 35" d="M787.7,1180.7q27.6,0,27.6,28.3v31.9q0,28.3-27.6,28.3H756.5q-23.5,0-23.5-23.4v-7q0-19.6,22.3-19.6h40.9v10H758.5q-13.7,0-13.7,11.7v4q0,13.6,13.9,13.6h27q17.2,0,17.2-18v-30.3q0-17.5-16.7-17.5H735.7v-12Z" fill="#1368a6"/>
      <path id="Object_36" data-name="Object 36" d="M915.8,1180.7v10.7H865.6q-11.3,0-11.3,10.5v6.9q0,9.7,10.5,9.7h35.6q19.3,0,19.3,18.1v12.9q0,19.7-20.9,19.7H843.1v-10.7h52.5q12,0,12-10.5v-10q0-9.7-10.3-9.7H861.7q-19.5,0-19.5-18.1v-10q0-19.5,20.4-19.5Z" fill="#1368a6"/>
      <path id="Object_37" data-name="Object 37" d="M970.3,1151.9v28.8h19.2v11H970.3v77.5H958v-77.5H941.4v-11H958v-28.8Z" fill="#1368a6"/>
      <path id="Object_38" data-name="Object 38" d="M1070.1,1180.7q27.6,0,27.6,28.3v31.9q0,28.3-27.6,28.3h-30q-27.6,0-27.6-28.3V1209q0-28.3,27.6-28.3Zm-45.2,58.1q0,18.2,17.6,18.2h25.3q17.6,0,17.6-18.2V1211q0-17.9-17.6-17.9h-25.3q-17.6,0-17.6,17.9Z" fill="#1368a6" fill-rule="evenodd"/>
      <path id="Object_39" data-name="Object 39" d="M1184.8,1180.7q27.6,0,27.6,28.3v60.2h-12.3V1211q0-17.9-17.6-17.9h-42.1v76.1h-12.3v-88.5Z" fill="#1368a6"/>
      <path id="Object_40" data-name="Object 40" d="M1300.7,1180.7q23.7,0,23.7,23.4v7.1q0,19.5-22.3,19.5h-41v-10h37.6q13.7,0,13.7-11.7v-4.1q0-13.5-13.9-13.5h-26.8q-17.4,0-17.4,18v30.3q0,17.4,16.9,17.4h50.4v12.1h-51.9q-27.6,0-27.6-28.3V1209q0-28.3,27.6-28.3Z" fill="#1368a6"/>
    </g>
  </g>
</svg>
