<svg width="135" height="40" viewBox="0 0 135 40" fill="none" xmlns="http://www.w3.org/2000/svg">
<path d="M0 5.71429C0 2.55837 2.55387 0 5.70423 0H129.296C132.446 0 135 2.55837 135 5.71429V34.2857C135 37.4416 132.446 40 129.296 40H5.70422C2.55387 40 0 37.4416 0 34.2857V5.71429Z" fill="#070A0C"/>
<path fill-rule="evenodd" clip-rule="evenodd" d="M129.296 0.952381H5.70423C3.07893 0.952381 0.950704 3.08436 0.950704 5.71429V34.2857C0.950704 36.9156 3.07893 39.0476 5.70422 39.0476H129.296C131.921 39.0476 134.049 36.9156 134.049 34.2857V5.71429C134.049 3.08436 131.921 0.952381 129.296 0.952381ZM5.70423 0C2.55387 0 0 2.55837 0 5.71429V34.2857C0 37.4416 2.55387 40 5.70422 40H129.296C132.446 40 135 37.4416 135 34.2857V5.71429C135 2.55837 132.446 0 129.296 0H5.70423Z" fill="#8F9297"/>
<path d="M31.7194 24.2363C31.4688 24.2363 31.2239 24.1621 31.0155 24.0229C30.8071 23.8837 30.6447 23.6858 30.5488 23.4543C30.4529 23.2228 30.4277 22.9681 30.4766 22.7223C30.5254 22.4765 30.646 22.2507 30.8232 22.0735C31.0003 21.8963 31.226 21.7755 31.4718 21.7266C31.7175 21.6777 31.9723 21.7027 32.2038 21.7986C32.4353 21.8944 32.6332 22.0568 32.7724 22.2651C32.9117 22.4735 32.986 22.7184 32.9861 22.969C32.9857 23.3049 32.8521 23.627 32.6147 23.8645C32.3772 24.1021 32.0553 24.2358 31.7194 24.2363ZM17.7173 24.2363C17.4667 24.2363 17.2218 24.1621 17.0134 24.0229C16.805 23.8837 16.6426 23.6858 16.5467 23.4543C16.4507 23.2228 16.4256 22.9681 16.4744 22.7223C16.5233 22.4765 16.6439 22.2507 16.821 22.0735C16.9982 21.8963 17.2239 21.7755 17.4696 21.7266C17.7154 21.6777 17.9701 21.7027 18.2016 21.7986C18.4332 21.8944 18.6311 22.0568 18.7703 22.2651C18.9096 22.4735 18.9839 22.7184 18.984 22.969C18.9836 23.3049 18.8501 23.627 18.6126 23.8646C18.3752 24.1022 18.0532 24.2358 17.7173 24.2363ZM32.1737 16.6047L34.7054 12.2194C34.74 12.1595 34.7625 12.0934 34.7716 12.0248C34.7806 11.9562 34.7761 11.8865 34.7582 11.8197C34.7404 11.7528 34.7095 11.6902 34.6674 11.6352C34.6253 11.5803 34.5729 11.5342 34.513 11.4996C34.4531 11.465 34.3869 11.4425 34.3184 11.4334C34.2498 11.4243 34.1801 11.4289 34.1132 11.4467C34.0464 11.4646 33.9837 11.4955 33.9288 11.5376C33.8739 11.5796 33.8278 11.6321 33.7932 11.692L31.2296 16.1327C29.2691 15.2379 27.0674 14.7396 24.7181 14.7396C22.3688 14.7396 20.1673 15.2386 18.2069 16.1327L15.6435 11.692C15.6089 11.6321 15.5629 11.5796 15.508 11.5375C15.4531 11.4954 15.3905 11.4645 15.3237 11.4466C15.2569 11.4286 15.1872 11.4241 15.1186 11.4331C15.05 11.4421 14.9839 11.4646 14.924 11.4991C14.8641 11.5337 14.8116 11.5798 14.7694 11.6346C14.7273 11.6895 14.6964 11.7522 14.6785 11.819C14.6606 11.8858 14.656 11.9555 14.665 12.0241C14.6741 12.0927 14.6965 12.1588 14.7311 12.2187L17.263 16.6047C12.9156 18.9695 9.94204 23.3711 9.50708 28.5714H39.9296C39.4942 23.3711 36.5209 18.9695 32.1737 16.6047Z" fill="#3DDC84"/>
<path d="M83.7823 15.3637L78.9675 28.5715H76.0564L82.122 13.3334H83.9816L83.7823 15.3637ZM87.8113 28.5715L82.9854 15.3637L82.7751 13.3334H84.6457L90.7335 28.5715H87.8113ZM87.5789 22.92V25.0027H78.8125V22.92H87.5789Z" fill="#EDF0F2"/>
<path d="M98.6587 22.8886H94.4636V20.8059H98.6587C99.3892 20.8059 99.9795 20.6943 100.43 20.471C100.88 20.2477 101.208 19.9407 101.415 19.55C101.629 19.1523 101.736 18.6988 101.736 18.1895C101.736 17.708 101.629 17.258 101.415 16.8394C101.208 16.4138 100.88 16.0719 100.43 15.8138C99.9795 15.5556 99.3892 15.4265 98.6587 15.4265H95.3159V28.5715H92.5377V13.3334H98.6587C99.9057 13.3334 100.965 13.5427 101.835 13.9613C102.713 14.373 103.381 14.9451 103.839 15.6777C104.296 16.4033 104.525 17.2336 104.525 18.1685C104.525 19.1523 104.296 19.9966 103.839 20.7012C103.381 21.4059 102.713 21.9467 101.835 22.3234C100.965 22.7002 99.9057 22.8886 98.6587 22.8886Z" fill="#EDF0F2"/>
<path d="M109.794 13.3334V28.5715H107.016V13.3334H109.794ZM119.479 13.3334L112.948 20.6698L109.229 24.3956L108.742 21.7897L111.399 18.6918L116.092 13.3334H119.479ZM116.49 28.5715L111.188 21.3501L113.103 19.5605L119.789 28.5715H116.49Z" fill="#EDF0F2"/>
<rect x="55.1409" y="26.6667" width="15.2113" height="1.90476" fill="#EDF0F2"/>
<rect width="7.61234" height="1.90309" transform="matrix(0.706483 0.70773 -0.706483 0.70773 58.7129 19.0476)" fill="#EDF0F2"/>
<rect width="7.61235" height="1.90309" transform="matrix(-0.706484 0.707729 -0.706484 -0.70773 68.1245 20.3947)" fill="#EDF0F2"/>
<rect x="61.7959" y="23.8096" width="10.4762" height="1.90141" transform="rotate(-90 61.7959 23.8096)" fill="#EDF0F2"/>
</svg>
