<svg width="135" height="40" viewBox="0 0 135 40" fill="none" xmlns="http://www.w3.org/2000/svg">
<path d="M0 5.71429C0 2.55837 2.55387 0 5.70423 0H129.296C132.446 0 135 2.55837 135 5.71429V34.2857C135 37.4416 132.446 40 129.296 40H5.70422C2.55387 40 0 37.4416 0 34.2857V5.71429Z" fill="#070A0C"/>
<path fill-rule="evenodd" clip-rule="evenodd" d="M129.296 0.952381H5.70423C3.07893 0.952381 0.950704 3.08436 0.950704 5.71429V34.2857C0.950704 36.9156 3.07893 39.0476 5.70422 39.0476H129.296C131.921 39.0476 134.049 36.9156 134.049 34.2857V5.71429C134.049 3.08436 131.921 0.952381 129.296 0.952381ZM5.70423 0C2.55387 0 0 2.55837 0 5.71429V34.2857C0 37.4416 2.55387 40 5.70422 40H129.296C132.446 40 135 37.4416 135 34.2857V5.71429C135 2.55837 132.446 0 129.296 0H5.70423Z" fill="#8F9297"/>
<path d="M28.8776 20.7874C28.8903 19.8383 29.152 18.9077 29.6384 18.0822C30.1249 17.2567 30.8202 16.5631 31.6597 16.066C31.1264 15.3324 30.4228 14.7286 29.6049 14.3027C28.787 13.8768 27.8772 13.6404 26.9478 13.6124C24.9654 13.412 23.0435 14.755 22.0333 14.755C21.0035 14.755 19.4481 13.6323 17.7732 13.6655C16.6899 13.6992 15.634 14.0027 14.7086 14.5463C13.7832 15.0899 13.0197 15.8551 12.4927 16.7674C10.2095 20.575 11.9125 26.1708 14.0996 29.2486C15.1939 30.7557 16.4728 32.4391 18.1462 32.3794C19.7837 32.314 20.3953 31.3736 22.3719 31.3736C24.3302 31.3736 24.9039 32.3794 26.6113 32.3414C28.3684 32.314 29.4755 30.8277 30.5314 29.3063C31.3176 28.2325 31.9226 27.0456 32.3239 25.7898C31.3031 25.3739 30.4319 24.6778 29.8191 23.7882C29.2062 22.8986 28.8788 21.855 28.8776 20.7874Z" fill="#EDF0F2"/>
<path d="M25.6528 11.5883C26.6109 10.4805 27.0829 9.0566 26.9686 7.61902C25.5049 7.76709 24.1528 8.44091 23.1818 9.5062C22.7071 10.0266 22.3435 10.6321 22.1118 11.2879C21.8801 11.9438 21.7849 12.6372 21.8316 13.3285C22.5637 13.3358 23.288 13.1829 23.9499 12.8815C24.6118 12.58 25.1941 12.1379 25.6528 11.5883Z" fill="#EDF0F2"/>
<path d="M47.7562 27.315H42.4804L41.2134 30.9987H38.9788L43.9759 17.3701H46.2976L51.2948 30.9987H49.0221L47.7562 27.315ZM43.0268 25.6152H47.2087L45.1472 19.6369H45.0895L43.0268 25.6152Z" fill="#EDF0F2"/>
<path d="M62.0869 26.031C62.0869 29.1188 60.4085 31.1026 57.8756 31.1026C57.234 31.1356 56.5959 30.9901 56.0344 30.6827C55.4729 30.3752 55.0106 29.9183 54.7006 29.3642H54.6527V34.2857H52.5813V21.0623H54.5863V22.715H54.6244C54.9487 22.1635 55.4187 21.709 55.9845 21.3997C56.5503 21.0903 57.1907 20.9378 57.8375 20.9584C60.3987 20.9584 62.0869 22.9519 62.0869 26.031ZM59.9579 26.031C59.9579 24.0193 58.9021 22.6968 57.2911 22.6968C55.7085 22.6968 54.644 24.0472 54.644 26.031C54.644 28.0331 55.7085 29.3738 57.2911 29.3738C58.9021 29.3738 59.9579 28.0609 59.9579 26.031Z" fill="#EDF0F2"/>
<path d="M73.1936 26.031C73.1936 29.1188 71.5152 31.1026 68.9823 31.1026C68.3407 31.1356 67.7026 30.9901 67.1411 30.6827C66.5796 30.3752 66.1173 29.9183 65.8073 29.3642H65.7593V34.2857H63.688V21.0623H65.6929V22.715H65.731C66.0553 22.1635 66.5254 21.709 67.0912 21.3997C67.657 21.0903 68.2974 20.9378 68.9442 20.9584C71.5054 20.9584 73.1936 22.9518 73.1936 26.031ZM71.0646 26.031C71.0646 24.0193 70.0088 22.6968 68.3978 22.6968C66.8152 22.6968 65.7507 24.0472 65.7507 26.031C65.7507 28.0331 66.8152 29.3738 68.3978 29.3738C70.0088 29.3738 71.0646 28.0609 71.0646 26.031H71.0646Z" fill="#EDF0F2"/>
<path d="M80.5344 27.2014C80.6879 28.5528 82.0213 29.4402 83.8434 29.4402C85.5893 29.4402 86.8454 28.5528 86.8454 27.3342C86.8454 26.2764 86.0878 25.643 84.294 25.2089L82.5002 24.7834C79.9586 24.1789 78.7787 23.0086 78.7787 21.1094C78.7787 18.758 80.8599 17.1428 83.8151 17.1428C86.7398 17.1428 88.7448 18.758 88.8122 21.1094H86.7213C86.5961 19.7493 85.4543 18.9284 83.7857 18.9284C82.117 18.9284 80.9752 19.759 80.9752 20.9679C80.9752 21.9315 81.7045 22.4984 83.4885 22.9324L85.0134 23.3011C87.8533 23.9624 89.0332 25.0856 89.0332 27.0791C89.0332 29.6288 86.9705 31.2257 83.6899 31.2257C80.6204 31.2257 78.5479 29.6663 78.4141 27.2013L80.5344 27.2014Z" fill="#EDF0F2"/>
<path d="M93.5035 18.7108V21.0623H95.4225V22.6774H93.5035V28.1552C93.5035 29.0061 93.8877 29.4027 94.7313 29.4027C94.9591 29.3988 95.1865 29.383 95.4127 29.3555V30.961C95.0334 31.0308 94.6479 31.0624 94.2622 31.0553C92.2191 31.0553 91.4223 30.2997 91.4223 28.3727V22.6774H89.9551V21.0623H91.4223V18.7108H93.5035Z" fill="#EDF0F2"/>
<path d="M96.5337 26.0309C96.5337 22.9046 98.4037 20.9401 101.32 20.9401C104.245 20.9401 106.107 22.9046 106.107 26.0309C106.107 29.1658 104.255 31.1218 101.32 31.1218C98.3851 31.1218 96.5337 29.1658 96.5337 26.0309ZM103.996 26.0309C103.996 23.8863 102.998 22.6206 101.32 22.6206C99.6413 22.6206 98.6442 23.896 98.6442 26.0309C98.6442 28.1841 99.6413 29.4402 101.32 29.4402C102.998 29.4402 103.996 28.1841 103.996 26.0309H103.996Z" fill="#EDF0F2"/>
<path d="M107.815 21.0624H109.791V22.7536H109.838C109.972 22.2254 110.286 21.7586 110.728 21.4317C111.17 21.1047 111.713 20.9376 112.266 20.9584C112.504 20.9576 112.742 20.9831 112.975 21.0345V22.9422C112.674 22.8516 112.36 22.8099 112.045 22.819C111.744 22.807 111.444 22.8592 111.165 22.9721C110.887 23.085 110.637 23.2559 110.431 23.4731C110.226 23.6903 110.072 23.9486 109.977 24.2303C109.883 24.512 109.852 24.8104 109.886 25.105V30.9986H107.815L107.815 21.0624Z" fill="#EDF0F2"/>
<path d="M122.525 28.0801C122.247 29.8839 120.463 31.1218 118.18 31.1218C115.244 31.1218 113.422 29.1851 113.422 26.0781C113.422 22.9614 115.254 20.9401 118.093 20.9401C120.885 20.9401 122.641 22.8285 122.641 25.8412V26.54H115.513V26.6633C115.48 27.0289 115.527 27.3973 115.65 27.744C115.773 28.0906 115.969 28.4075 116.226 28.6737C116.482 28.9399 116.794 29.1493 117.139 29.2879C117.484 29.4265 117.855 29.4912 118.228 29.4777C118.717 29.5229 119.209 29.4112 119.629 29.1594C120.048 28.9076 120.375 28.5291 120.558 28.0801L122.525 28.0801ZM115.523 25.1146H120.568C120.587 24.7858 120.536 24.4567 120.419 24.1481C120.303 23.8395 120.123 23.5579 119.89 23.3211C119.658 23.0843 119.378 22.8974 119.069 22.772C118.76 22.6467 118.427 22.5856 118.093 22.5927C117.756 22.5907 117.421 22.6545 117.109 22.7805C116.797 22.9064 116.513 23.092 116.274 23.3264C116.035 23.5609 115.846 23.8396 115.717 24.1465C115.588 24.4534 115.522 24.7824 115.523 25.1146V25.1146Z" fill="#EDF0F2"/>
<path d="M42.3597 7.92727C42.799 7.89795 43.2398 7.95966 43.6503 8.10796C44.0608 8.25625 44.4308 8.48742 44.7336 8.7848C45.0365 9.08218 45.2645 9.43835 45.4014 9.82763C45.5383 10.2169 45.5806 10.6296 45.5252 11.0359C45.5252 13.0346 44.3636 14.1835 42.3597 14.1835H39.9297V7.92727H42.3597ZM40.9746 13.2987H42.243C42.5569 13.3162 42.871 13.2683 43.1625 13.1586C43.454 13.0489 43.7155 12.8802 43.928 12.6646C44.1405 12.4491 44.2987 12.1922 44.391 11.9127C44.4833 11.6331 44.5074 11.3379 44.4616 11.0486C44.5041 10.7605 44.4775 10.4671 44.3838 10.1896C44.2901 9.91214 44.1315 9.65735 43.9195 9.44353C43.7075 9.22971 43.4472 9.06215 43.1574 8.95286C42.8675 8.84357 42.5553 8.79525 42.243 8.81137H40.9746V13.2987Z" fill="#EDF0F2"/>
<path d="M46.7052 11.8207C46.6733 11.5104 46.7114 11.1973 46.8172 10.9016C46.923 10.6058 47.0941 10.3339 47.3196 10.1033C47.545 9.87262 47.8198 9.68833 48.1263 9.56222C48.4328 9.43611 48.7642 9.37097 49.0994 9.37097C49.4346 9.37097 49.766 9.43611 50.0725 9.56222C50.379 9.68833 50.6538 9.87262 50.8792 10.1033C51.1047 10.3339 51.2758 10.6058 51.3816 10.9016C51.4874 11.1973 51.5255 11.5104 51.4936 11.8207C51.5261 12.1312 51.4884 12.4447 51.3829 12.7409C51.2774 13.0372 51.1064 13.3096 50.8809 13.5407C50.6554 13.7718 50.3804 13.9565 50.0736 14.0829C49.7668 14.2092 49.435 14.2745 49.0994 14.2745C48.7638 14.2745 48.432 14.2092 48.1252 14.0829C47.8184 13.9565 47.5434 13.7718 47.3179 13.5407C47.0924 13.3096 46.9214 13.0372 46.8159 12.7409C46.7104 12.4447 46.6726 12.1312 46.7052 11.8207ZM50.463 11.8207C50.463 10.7972 49.9687 10.1988 49.101 10.1988C48.2301 10.1988 47.7402 10.7972 47.7402 11.8207C47.7402 12.8523 48.2302 13.4461 49.101 13.4461C49.9687 13.4461 50.463 12.8482 50.463 11.8207H50.463Z" fill="#EDF0F2"/>
<path d="M57.859 14.1833H56.8196L55.7704 10.7061H55.6911L54.6462 14.1833H53.6167L52.2173 9.46204H53.2336L54.143 13.0647H54.2179L55.2617 9.46204H56.2229L57.2667 13.0647H57.3459L58.251 9.46204H59.2529L57.859 14.1833Z" fill="#EDF0F2"/>
<path d="M60.4299 9.46212H61.3944V10.2121H61.4693C61.5963 9.94276 61.8106 9.71694 62.0821 9.56616C62.3537 9.41538 62.6691 9.34715 62.9844 9.37098C63.2314 9.35371 63.4794 9.38835 63.7101 9.47233C63.9408 9.55631 64.1482 9.68748 64.3169 9.85612C64.4857 10.0248 64.6115 10.2266 64.685 10.4466C64.7585 10.6666 64.7779 10.8991 64.7416 11.127V14.1834H63.7397V11.361C63.7397 10.6023 63.3851 10.2249 62.6441 10.2249C62.4764 10.2177 62.309 10.2442 62.1533 10.3028C61.9977 10.3613 61.8575 10.4504 61.7423 10.5641C61.6272 10.6777 61.5398 10.8132 61.4862 10.9611C61.4327 11.1091 61.4141 11.2661 61.4319 11.4214V14.1834H60.4299L60.4299 9.46212Z" fill="#EDF0F2"/>
<path d="M66.3384 7.61902H67.341V14.1834H66.3384V7.61902Z" fill="#EDF0F2"/>
<path d="M68.7327 11.8207C68.7008 11.5105 68.739 11.1974 68.8449 10.9016C68.9507 10.6059 69.1218 10.3339 69.3473 10.1033C69.5727 9.87263 69.8475 9.68834 70.154 9.56223C70.4606 9.43612 70.7921 9.37097 71.1272 9.37097C71.4624 9.37097 71.7939 9.43612 72.1004 9.56223C72.407 9.68834 72.6817 9.87263 72.9072 10.1033C73.1327 10.3339 73.3038 10.6059 73.4096 10.9016C73.5154 11.1974 73.5536 11.5105 73.5217 11.8207C73.5542 12.1313 73.5165 12.4448 73.4109 12.741C73.3054 13.0373 73.1343 13.3097 72.9088 13.5408C72.6833 13.7719 72.4083 13.9565 72.1015 14.0829C71.7947 14.2093 71.4628 14.2746 71.1272 14.2746C70.7917 14.2746 70.4598 14.2093 70.153 14.0829C69.8462 13.9565 69.5712 13.7719 69.3456 13.5408C69.1201 13.3097 68.9491 13.0373 68.8436 12.741C68.738 12.4448 68.7003 12.1313 68.7327 11.8207ZM72.4906 11.8207C72.4906 10.7973 71.9962 10.1989 71.1286 10.1989C70.2577 10.1989 69.7678 10.7973 69.7678 11.8208C69.7678 12.8524 70.2577 13.4462 71.1286 13.4462C71.9962 13.4462 72.4906 12.8482 72.4906 11.8207H72.4906Z" fill="#EDF0F2"/>
<path d="M74.5767 12.8482C74.5767 11.9983 75.2571 11.5084 76.4649 11.4388L77.8402 11.3651V10.9575C77.8402 10.4589 77.4856 10.1773 76.8008 10.1773C76.2414 10.1773 75.8539 10.3683 75.7427 10.7021H74.7726C74.875 9.89112 75.6953 9.37097 76.847 9.37097C78.1198 9.37097 78.8377 9.96023 78.8377 10.9575V14.1834H77.8732V13.5199H77.7939C77.633 13.7579 77.4071 13.9519 77.1391 14.0822C76.8712 14.2124 76.571 14.2742 76.269 14.2612C76.0558 14.2818 75.8404 14.2607 75.6366 14.1991C75.4328 14.1376 75.2451 14.037 75.0857 13.9039C74.9263 13.7707 74.7986 13.608 74.7109 13.4262C74.6232 13.2444 74.5775 13.0475 74.5767 12.8482ZM77.8402 12.4448V12.0501L76.6004 12.1238C75.9012 12.1673 75.5841 12.3885 75.5841 12.8047C75.5841 13.2296 75.9805 13.4769 76.5255 13.4769C76.6852 13.4919 76.8466 13.4769 76.9999 13.4328C77.1532 13.3887 77.2955 13.3163 77.4181 13.22C77.5408 13.1237 77.6414 13.0054 77.7139 12.8723C77.7864 12.7391 77.8293 12.5937 77.8402 12.4448Z" fill="#EDF0F2"/>
<path d="M80.1548 11.8207C80.1548 10.3288 80.9795 9.38376 82.2622 9.38376C82.5795 9.37017 82.8944 9.44084 83.1701 9.58752C83.4458 9.73419 83.6709 9.95082 83.8191 10.2121H83.8939V7.61902H84.8959V14.1834H83.9358V13.4374H83.8565C83.6969 13.6969 83.4639 13.9109 83.1829 14.0561C82.9019 14.2013 82.5835 14.2722 82.2622 14.2612C80.9707 14.2612 80.1548 13.3161 80.1548 11.8207ZM81.1898 11.8207C81.1898 12.8221 81.6974 13.4247 82.5463 13.4247C83.3908 13.4247 83.9127 12.8134 83.9127 11.8248C83.9127 10.8408 83.3853 10.2208 82.5463 10.2208C81.7029 10.2208 81.1898 10.8275 81.1898 11.8207H81.1898Z" fill="#EDF0F2"/>
<path d="M89.0414 11.8207C89.0094 11.5104 89.0476 11.1973 89.1534 10.9016C89.2592 10.6058 89.4303 10.3339 89.6557 10.1033C89.8812 9.87262 90.1559 9.68833 90.4624 9.56222C90.7689 9.43611 91.1004 9.37097 91.4356 9.37097C91.7707 9.37097 92.1022 9.43611 92.4087 9.56222C92.7152 9.68833 92.99 9.87262 93.2154 10.1033C93.4408 10.3339 93.6119 10.6058 93.7177 10.9016C93.8235 11.1973 93.8617 11.5104 93.8298 11.8207C93.8623 12.1312 93.8246 12.4447 93.7191 12.7409C93.6135 13.0372 93.4425 13.3096 93.2171 13.5407C92.9916 13.7718 92.7166 13.9565 92.4098 14.0829C92.103 14.2092 91.7711 14.2745 91.4356 14.2745C91.1 14.2745 90.7682 14.2092 90.4613 14.0829C90.1545 13.9565 89.8796 13.7718 89.6541 13.5407C89.4286 13.3096 89.2576 13.0372 89.1521 12.7409C89.0465 12.4447 89.0088 12.1312 89.0414 11.8207ZM92.7992 11.8207C92.7992 10.7972 92.3048 10.1988 91.4372 10.1988C90.5663 10.1988 90.0764 10.7972 90.0764 11.8207C90.0764 12.8523 90.5663 13.4461 91.4372 13.4461C92.3048 13.4461 92.7992 12.8482 92.7992 11.8207Z" fill="#EDF0F2"/>
<path d="M95.1738 9.46212H96.1383V10.2121H96.2132C96.3402 9.94276 96.5545 9.71694 96.826 9.56616C97.0976 9.41538 97.413 9.34715 97.7283 9.37098C97.9753 9.35371 98.2233 9.38835 98.454 9.47233C98.6847 9.55631 98.8921 9.68748 99.0608 9.85612C99.2296 10.0248 99.3554 10.2266 99.4289 10.4466C99.5024 10.6666 99.5218 10.8991 99.4855 11.127V14.1834H98.4836V11.361C98.4836 10.6023 98.129 10.2249 97.388 10.2249C97.2203 10.2177 97.0529 10.2442 96.8972 10.3028C96.7416 10.3613 96.6014 10.4504 96.4862 10.5641C96.3711 10.6777 96.2837 10.8132 96.2301 10.9611C96.1766 11.1091 96.158 11.2661 96.1758 11.4214V14.1834H95.1738V9.46212Z" fill="#EDF0F2"/>
<path d="M105.147 8.28662V9.48358H106.247V10.2684H105.147V12.6961C105.147 13.1907 105.367 13.4072 105.865 13.4072C105.993 13.4069 106.121 13.3997 106.247 13.3857V14.1619C106.067 14.1918 105.885 14.2077 105.702 14.2095C104.588 14.2095 104.144 13.845 104.144 12.9347V10.2684H103.338V9.48354H104.144V8.28662H105.147Z" fill="#EDF0F2"/>
<path d="M107.616 7.61902H108.609V10.2208H108.688C108.821 9.94891 109.041 9.72182 109.318 9.57047C109.595 9.41912 109.916 9.35088 110.236 9.37505C110.482 9.36261 110.728 9.40077 110.956 9.48679C111.184 9.57281 111.389 9.70457 111.556 9.87269C111.723 10.0408 111.848 10.2411 111.922 10.4593C111.996 10.6776 112.017 10.9083 111.985 11.1352V14.1834H110.982V11.365C110.982 10.6109 110.604 10.229 109.896 10.229C109.724 10.2159 109.551 10.2379 109.389 10.2935C109.226 10.3491 109.079 10.437 108.958 10.551C108.836 10.665 108.742 10.8024 108.684 10.9535C108.625 11.1047 108.602 11.2659 108.618 11.4259V14.1834H107.616L107.616 7.61902Z" fill="#EDF0F2"/>
<path d="M117.827 12.9086C117.691 13.3401 117.396 13.7133 116.994 13.963C116.592 14.2127 116.108 14.323 115.627 14.2745C115.293 14.2827 114.96 14.2231 114.653 14.0999C114.346 13.9767 114.071 13.7927 113.848 13.5609C113.625 13.329 113.459 13.0548 113.361 12.7572C113.263 12.4596 113.236 12.1458 113.282 11.8376C113.237 11.5284 113.265 11.2139 113.362 10.9154C113.46 10.6169 113.625 10.3414 113.847 10.1075C114.069 9.87364 114.342 9.68683 114.649 9.55975C114.955 9.43266 115.287 9.36827 115.623 9.37093C117.035 9.37093 117.888 10.2684 117.888 11.751V12.0761H114.303V12.1284C114.287 12.3016 114.31 12.476 114.371 12.6404C114.432 12.8047 114.53 12.9554 114.657 13.0827C114.784 13.2101 114.939 13.3113 115.111 13.3799C115.282 13.4484 115.468 13.4828 115.655 13.4809C115.894 13.5077 116.137 13.4675 116.352 13.3656C116.567 13.2637 116.745 13.1046 116.862 12.9085L117.827 12.9086ZM114.303 11.387H116.867C116.88 11.2286 116.856 11.0694 116.799 10.9198C116.741 10.7701 116.651 10.6333 116.533 10.5181C116.416 10.403 116.273 10.3119 116.116 10.2509C115.958 10.1899 115.788 10.1603 115.617 10.164C115.444 10.1619 115.272 10.1922 115.111 10.2529C114.951 10.3137 114.805 10.4037 114.683 10.5177C114.56 10.6317 114.463 10.7673 114.398 10.9166C114.333 11.0659 114.3 11.2259 114.303 11.387H114.303Z" fill="#EDF0F2"/>
</svg>
